<?xml version="1.0" standalone="no"?>
<!DOCTYPE svg PUBLIC "-//W3C//DTD SVG 20010904//EN"
 "http://www.w3.org/TR/2001/REC-SVG-20010904/DTD/svg10.dtd">
<svg version="1.0" xmlns="http://www.w3.org/2000/svg"
 width="118.000000pt" height="83.000000pt" viewBox="0 0 118.000000 83.000000"
 preserveAspectRatio="xMidYMid meet">
<metadata>
Created by potrace 1.13, written by Peter Selinger 2001-2015
</metadata>
<g transform="translate(0.000000,83.000000) scale(0.100000,-0.100000)"
fill="#000000" stroke="none">
<path d="M310 634 c-151 -107 -283 -200 -293 -207 -26 -17 -15 -55 20 -68 22
-8 52 10 293 175 l269 184 253 -184 c139 -101 261 -184 270 -184 21 0 48 27
48 48 -1 17 -544 425 -571 429 -8 1 -138 -86 -289 -193z"/>
<path d="M385 522 l-199 -137 75 -5 c42 -3 83 -11 92 -19 9 -7 20 -35 23 -62
l7 -49 78 0 79 0 0 119 c0 160 5 166 124 166 47 0 86 2 86 5 -1 5 -155 120
-161 120 -2 0 -94 -62 -204 -138z"/>
<path d="M800 260 l0 -260 80 0 80 0 0 208 0 207 -74 53 c-41 28 -77 52 -80
52 -3 0 -6 -117 -6 -260z"/>
<path d="M603 483 c-10 -3 -13 -62 -13 -244 l0 -239 80 0 80 0 0 233 c0 168
-3 236 -12 245 -12 12 -110 16 -135 5z"/>
<path d="M177 325 c-14 -14 -17 -40 -17 -171 l0 -154 85 0 85 0 0 153 c0 83
-4 158 -9 166 -15 23 -123 27 -144 6z"/>
<path d="M380 100 l0 -100 80 0 81 0 -3 98 -3 97 -77 3 -78 3 0 -101z"/>
</g>
</svg>
